<svg width="500" viewBox="0 0 1638 1253" fill="none" xmlns="http://www.w3.org/2000/svg">
<g id="LogoCombine">
<g id="back">
<g id="Vector">
<mask id="path-1-inside-1" fill="white">
<path d="M325.65 226.399C323.502 230.592 324.268 233.382 328.642 237.489C333.964 242.485 339.109 244.6 344.458 244.059L348.894 243.567L482.96 369.446L617.026 495.325L604.066 493.117C596.967 492.014 587.62 490.483 583.359 489.716L575.63 488.41L514.37 431.667L453.11 374.925L453.882 369.957C454.664 365.517 454.451 364.67 451.535 361.933C447.088 357.757 441.306 356.079 436.096 357.397C426.872 359.732 424.552 366.351 430.748 372.169C433.956 375.181 440.937 377.725 444.168 377.007C446.381 376.498 447.548 377.593 508.712 435.023L571.043 493.547L583.211 495.528C589.736 496.61 601.816 498.637 610.03 500.011L624.754 502.581L668.422 543.582L712.09 584.583L711.11 614.193C710.575 630.509 710.037 645.657 709.985 647.808L709.607 651.722L635.881 583.274C595.211 545.605 548.142 501.799 531.301 485.987L500.699 457.123L502.938 454.052C505.435 450.315 504.339 445.147 499.965 441.04C496.539 437.823 492.259 436.004 486.495 435.379C480.82 434.707 473.101 438.068 471.058 442.1C466.876 450.852 477.26 460.343 490.894 460.078L495.193 459.975L569.731 529.702C610.806 568.01 646.908 601.778 650.116 604.79L656.053 610.106L647.854 608.617C643.358 607.759 639.363 606.855 639.072 606.581C638.707 606.239 634.785 605.402 630.347 604.728C625.835 603.985 610.262 601.005 595.675 598.046L569.144 592.671L541.806 567.002C526.7 552.947 512.379 539.76 509.853 537.776C505.311 534.288 505.238 534.219 507.043 531.903C509.428 528.968 508.335 524.967 504.034 520.929C501.191 518.259 499.872 517.668 495.887 517.289C487.843 516.464 480.831 521.264 482.04 526.798C483.136 531.966 490.186 536.387 497.282 536.322L500.757 536.221L533.781 567.229L566.822 598.122L582.468 601.17C591.136 602.84 603.887 605.369 610.865 606.747C617.828 608.239 632.415 611.197 643.315 613.411L663.19 617.454L715.518 666.716C765.82 713.946 777.712 725.629 775.854 725.955C775.353 726.002 762.516 724.686 747.341 722.987L719.758 719.856L683.526 685.837L647.366 651.886L647.9 648.635C648.92 642.477 641.95 637.485 633.959 638.65C628.489 639.465 626.022 641.806 626.734 645.579C627.56 649.718 630.654 652.364 636.849 654.041L642.089 655.469L675.979 686.772C708.921 717.185 709.869 718.075 707.542 718.218C706.128 718.313 694.527 716.994 681.575 715.312L658.186 712.239L613.621 671.171C589.151 648.584 561.838 623.327 553.09 615.113C540.624 603.408 536.858 600.261 536.278 600.88C535.31 601.912 534.652 617.335 534.345 651.588C534.16 665.386 533.777 681.197 533.442 686.575C533.18 692.021 533.128 697.147 533.251 698.039C533.824 701.035 532.54 745.884 531.81 748.174C531.474 749.41 531.447 751.973 531.767 753.826C532.086 755.678 532.318 764.692 532.121 773.822L531.789 790.457L564.319 820.872L596.76 851.332L611.916 851.978C620.274 852.322 632.664 852.701 639.389 852.935C646.203 853.123 658.917 853.547 667.598 853.936C693.981 855.034 723.912 856.099 742.292 856.668C751.902 856.895 772.562 857.664 788.202 858.378C803.77 859.023 817.94 859.649 819.588 859.645C826.345 859.65 838.809 860.098 851.241 860.774C858.524 861.144 868.853 861.529 874.196 861.629C879.627 861.683 889.884 862 897.167 862.369C904.539 862.693 915.192 863.123 921.02 863.29L931.616 863.537L961.512 890.961C977.963 906.019 991.982 918.406 992.629 918.496C993.187 918.631 1018.52 905.935 1048.85 890.433L1103.86 862.259L1074.46 833.622C1058.27 817.9 1045.18 804.709 1045.32 804.32C1045.46 803.931 1063.44 752.768 1085.24 690.704L1124.91 577.753L1092.78 547.452L1060.55 517.197L1054.21 515.383C1050.72 514.432 1046.38 513.596 1044.68 513.418C1042.88 513.285 1009.89 507.011 971.22 499.425C850.166 475.674 799.613 465.854 797.083 465.678C794.876 465.546 799.161 469.699 851.432 518.778C882.707 548.143 909.632 573.812 911.48 575.935C915.014 580.159 915.1 578.946 908.015 603.859L905.634 612.102L836.97 548.149L768.306 484.195L768.912 481.013C769.313 479.319 772.147 471.372 775.32 463.356L781.032 448.926L752.835 422.321L724.549 395.763L725.331 391.322C726.033 387.453 725.748 386.539 722.832 383.801C718.822 380.036 713.816 378.699 708.388 379.812C700.996 381.41 698.717 388.326 703.966 393.254C706.445 395.582 712.164 397.717 715.332 397.457C717.748 397.268 718.639 397.975 745.393 423.096L772.789 448.947L769.663 456.621C767.927 460.812 765.211 467.318 763.862 471.097L761.098 477.945L746.153 463.913L731.281 449.949L732.801 446.719C735.085 442.137 734.05 438.319 729.238 433.801C720.199 425.313 706.209 425.762 701.083 434.79C698.757 439.075 699.637 442.23 704.522 446.816C709.115 451.129 714.761 453.196 720.433 452.701L724.264 452.416L814.078 536.746L903.804 621.122L899.5 643.213C897.08 655.3 894.962 665.213 894.873 665.259C894.8 665.191 844.232 618.098 782.833 560.578L671.027 455.988L670.434 447.799C670.156 443.269 669.625 437.596 669.312 435.103C668.999 432.61 667.705 415.224 666.368 396.374L663.878 362.082L611.316 312.73L558.754 263.378L559.383 259.441C559.876 255.893 559.647 255.161 556.075 251.807C552.576 248.522 551.492 248.021 546.641 247.348C541.952 246.696 540.522 246.906 537.148 248.654C533.685 250.448 533.161 251.25 532.951 254.545C532.829 257.795 533.406 258.983 536.541 261.926C539.967 265.143 540.744 265.485 546.581 266.179L552.903 266.94L573.429 286.472L593.867 306.049L567.095 301.223L540.235 296.443L514.257 271.663L488.19 246.93L489.187 241.527C490.258 236.193 490.128 235.942 485.744 231.309L481.288 226.607L474.012 225.597C467.471 224.63 466.38 224.77 462.473 226.794C456.613 229.829 454.747 233.77 456.74 239.004C459.407 245.907 466.755 249.961 476.502 249.798L480.713 249.741L508.285 275.5L535.696 301.237L551.828 304.352C560.496 306.023 575.454 308.683 584.889 310.168L601.892 312.938L629.158 338.538L656.496 364.207L659.313 403.851C660.974 425.721 662.061 444.594 661.975 445.807C661.673 447.982 660.652 447.024 600.29 390.347L538.907 332.713L540.474 329.139C544.285 320.686 534.257 311.011 521.964 311.112C517.43 311.124 510.681 314.62 508.378 318.149C506.462 321.266 508.214 327.05 512.061 330.793C515.196 333.736 521.99 335.846 527.938 335.739C532.238 335.636 532.311 335.704 538.523 341.408C543.845 346.405 544.324 347.113 542.383 346.844C541.09 346.664 530.101 344.496 518.069 342.126L496.019 337.722L474.148 317.187L452.278 296.652L452.187 292.557C451.949 284.183 442.175 279.793 433.562 284.255C426.903 287.704 431.206 295.884 440.78 298.147L445.406 299.256L468.37 320.818L491.334 342.379L510.975 346.331C521.802 348.477 535.508 351.255 541.605 352.451L552.593 354.619L682.285 476.391C753.583 543.335 811.727 598.186 811.549 598.278C811.371 598.37 790.478 594.536 765.21 589.569L719.298 580.743L705.472 568.15L691.63 555.67L688.19 529.413L684.733 503.269L624.954 447.14L565.175 391.012L565.512 386.801C565.863 381.309 562.338 377.611 555.522 376.256C551.673 375.489 550.332 375.652 547.046 377.354C538.522 381.77 542.276 390.34 553.734 392.689L558.068 393.524L617.376 448.304L676.683 503.084L679.529 524.127C681.222 535.677 682.287 545.216 682.02 545.354C681.754 545.492 608.31 476.792 518.787 392.736L356.071 239.956L357.787 237.686C359.728 234.981 358.998 230.155 356.291 227.097C351.283 221.618 349.131 220.503 342.825 219.627C337.092 218.773 336.163 218.935 331.812 221.189C328.616 222.845 326.551 224.658 325.65 226.399Z"/>
</mask>
<path d="M325.65 226.399C323.502 230.592 324.268 233.382 328.642 237.489C333.964 242.485 339.109 244.6 344.458 244.059L348.894 243.567L482.96 369.446L617.026 495.325L604.066 493.117C596.967 492.014 587.62 490.483 583.359 489.716L575.63 488.41L514.37 431.667L453.11 374.925L453.882 369.957C454.664 365.517 454.451 364.67 451.535 361.933C447.088 357.757 441.306 356.079 436.096 357.397C426.872 359.732 424.552 366.351 430.748 372.169C433.956 375.181 440.937 377.725 444.168 377.007C446.381 376.498 447.548 377.593 508.712 435.023L571.043 493.547L583.211 495.528C589.736 496.61 601.816 498.637 610.03 500.011L624.754 502.581L668.422 543.582L712.09 584.583L711.11 614.193C710.575 630.509 710.037 645.657 709.985 647.808L709.607 651.722L635.881 583.274C595.211 545.605 548.142 501.799 531.301 485.987L500.699 457.123L502.938 454.052C505.435 450.315 504.339 445.147 499.965 441.04C496.539 437.823 492.259 436.004 486.495 435.379C480.82 434.707 473.101 438.068 471.058 442.1C466.876 450.852 477.26 460.343 490.894 460.078L495.193 459.975L569.731 529.702C610.806 568.01 646.908 601.778 650.116 604.79L656.053 610.106L647.854 608.617C643.358 607.759 639.363 606.855 639.072 606.581C638.707 606.239 634.785 605.402 630.347 604.728C625.835 603.985 610.262 601.005 595.675 598.046L569.144 592.671L541.806 567.002C526.7 552.947 512.379 539.76 509.853 537.776C505.311 534.288 505.238 534.219 507.043 531.903C509.428 528.968 508.335 524.967 504.034 520.929C501.191 518.259 499.872 517.668 495.887 517.289C487.843 516.464 480.831 521.264 482.04 526.798C483.136 531.966 490.186 536.387 497.282 536.322L500.757 536.221L533.781 567.229L566.822 598.122L582.468 601.17C591.136 602.84 603.887 605.369 610.865 606.747C617.828 608.239 632.415 611.197 643.315 613.411L663.19 617.454L715.518 666.716C765.82 713.946 777.712 725.629 775.854 725.955C775.353 726.002 762.516 724.686 747.341 722.987L719.758 719.856L683.526 685.837L647.366 651.886L647.9 648.635C648.92 642.477 641.95 637.485 633.959 638.65C628.489 639.465 626.022 641.806 626.734 645.579C627.56 649.718 630.654 652.364 636.849 654.041L642.089 655.469L675.979 686.772C708.921 717.185 709.869 718.075 707.542 718.218C706.128 718.313 694.527 716.994 681.575 715.312L658.186 712.239L613.621 671.171C589.151 648.584 561.838 623.327 553.09 615.113C540.624 603.408 536.858 600.261 536.278 600.88C535.31 601.912 534.652 617.335 534.345 651.588C534.16 665.386 533.777 681.197 533.442 686.575C533.18 692.021 533.128 697.147 533.251 698.039C533.824 701.035 532.54 745.884 531.81 748.174C531.474 749.41 531.447 751.973 531.767 753.826C532.086 755.678 532.318 764.692 532.121 773.822L531.789 790.457L564.319 820.872L596.76 851.332L611.916 851.978C620.274 852.322 632.664 852.701 639.389 852.935C646.203 853.123 658.917 853.547 667.598 853.936C693.981 855.034 723.912 856.099 742.292 856.668C751.902 856.895 772.562 857.664 788.202 858.378C803.77 859.023 817.94 859.649 819.588 859.645C826.345 859.65 838.809 860.098 851.241 860.774C858.524 861.144 868.853 861.529 874.196 861.629C879.627 861.683 889.884 862 897.167 862.369C904.539 862.693 915.192 863.123 921.02 863.29L931.616 863.537L961.512 890.961C977.963 906.019 991.982 918.406 992.629 918.496C993.187 918.631 1018.52 905.935 1048.85 890.433L1103.86 862.259L1074.46 833.622C1058.27 817.9 1045.18 804.709 1045.32 804.32C1045.46 803.931 1063.44 752.768 1085.24 690.704L1124.91 577.753L1092.78 547.452L1060.55 517.197L1054.21 515.383C1050.72 514.432 1046.38 513.596 1044.68 513.418C1042.88 513.285 1009.89 507.011 971.22 499.425C850.166 475.674 799.613 465.854 797.083 465.678C794.876 465.546 799.161 469.699 851.432 518.778C882.707 548.143 909.632 573.812 911.48 575.935C915.014 580.159 915.1 578.946 908.015 603.859L905.634 612.102L836.97 548.149L768.306 484.195L768.912 481.013C769.313 479.319 772.147 471.372 775.32 463.356L781.032 448.926L752.835 422.321L724.549 395.763L725.331 391.322C726.033 387.453 725.748 386.539 722.832 383.801C718.822 380.036 713.816 378.699 708.388 379.812C700.996 381.41 698.717 388.326 703.966 393.254C706.445 395.582 712.164 397.717 715.332 397.457C717.748 397.268 718.639 397.975 745.393 423.096L772.789 448.947L769.663 456.621C767.927 460.812 765.211 467.318 763.862 471.097L761.098 477.945L746.153 463.913L731.281 449.949L732.801 446.719C735.085 442.137 734.05 438.319 729.238 433.801C720.199 425.313 706.209 425.762 701.083 434.79C698.757 439.075 699.637 442.23 704.522 446.816C709.115 451.129 714.761 453.196 720.433 452.701L724.264 452.416L814.078 536.746L903.804 621.122L899.5 643.213C897.08 655.3 894.962 665.213 894.873 665.259C894.8 665.191 844.232 618.098 782.833 560.578L671.027 455.988L670.434 447.799C670.156 443.269 669.625 437.596 669.312 435.103C668.999 432.61 667.705 415.224 666.368 396.374L663.878 362.082L611.316 312.73L558.754 263.378L559.383 259.441C559.876 255.893 559.647 255.161 556.075 251.807C552.576 248.522 551.492 248.021 546.641 247.348C541.952 246.696 540.522 246.906 537.148 248.654C533.685 250.448 533.161 251.25 532.951 254.545C532.829 257.795 533.406 258.983 536.541 261.926C539.967 265.143 540.744 265.485 546.581 266.179L552.903 266.94L573.429 286.472L593.867 306.049L567.095 301.223L540.235 296.443L514.257 271.663L488.19 246.93L489.187 241.527C490.258 236.193 490.128 235.942 485.744 231.309L481.288 226.607L474.012 225.597C467.471 224.63 466.38 224.77 462.473 226.794C456.613 229.829 454.747 233.77 456.74 239.004C459.407 245.907 466.755 249.961 476.502 249.798L480.713 249.741L508.285 275.5L535.696 301.237L551.828 304.352C560.496 306.023 575.454 308.683 584.889 310.168L601.892 312.938L629.158 338.538L656.496 364.207L659.313 403.851C660.974 425.721 662.061 444.594 661.975 445.807C661.673 447.982 660.652 447.024 600.29 390.347L538.907 332.713L540.474 329.139C544.285 320.686 534.257 311.011 521.964 311.112C517.43 311.124 510.681 314.62 508.378 318.149C506.462 321.266 508.214 327.05 512.061 330.793C515.196 333.736 521.99 335.846 527.938 335.739C532.238 335.636 532.311 335.704 538.523 341.408C543.845 346.405 544.324 347.113 542.383 346.844C541.09 346.664 530.101 344.496 518.069 342.126L496.019 337.722L474.148 317.187L452.278 296.652L452.187 292.557C451.949 284.183 442.175 279.793 433.562 284.255C426.903 287.704 431.206 295.884 440.78 298.147L445.406 299.256L468.37 320.818L491.334 342.379L510.975 346.331C521.802 348.477 535.508 351.255 541.605 352.451L552.593 354.619L682.285 476.391C753.583 543.335 811.727 598.186 811.549 598.278C811.371 598.37 790.478 594.536 765.21 589.569L719.298 580.743L705.472 568.15L691.63 555.67L688.19 529.413L684.733 503.269L624.954 447.14L565.175 391.012L565.512 386.801C565.863 381.309 562.338 377.611 555.522 376.256C551.673 375.489 550.332 375.652 547.046 377.354C538.522 381.77 542.276 390.34 553.734 392.689L558.068 393.524L617.376 448.304L676.683 503.084L679.529 524.127C681.222 535.677 682.287 545.216 682.02 545.354C681.754 545.492 608.31 476.792 518.787 392.736L356.071 239.956L357.787 237.686C359.728 234.981 358.998 230.155 356.291 227.097C351.283 221.618 349.131 220.503 342.825 219.627C337.092 218.773 336.163 218.935 331.812 221.189C328.616 222.845 326.551 224.658 325.65 226.399Z" stroke="#FC0B56" stroke-width="4" mask="url(#path-1-inside-1)"/>
</g>
<g id="Vector_2">
<mask id="path-2-inside-2" fill="white">
<path d="M299.676 288.817C297.77 292.46 299.04 296.37 303.341 300.408C307.35 304.173 311.589 305.695 319.753 306.245L325.064 306.574L368.951 347.781L412.749 389.034L412.108 398.394C411.805 403.542 411.065 418.371 410.344 431.278L409.146 454.733L377.935 424.911L346.635 395.134L347.176 391.243C347.795 386.78 344.902 383.286 338.948 381.06C334.402 379.379 331.485 379.615 326.424 382.237C323.316 383.847 322.244 385.039 321.958 387.099C321.163 392.822 328.831 398.727 337.002 398.637L340.388 398.583L395.21 450.057L449.959 501.462L447.954 514.716C446.775 522.018 445.189 531.654 444.57 536.118L443.118 544.198L403.824 507.304L364.546 470.295L365.84 467.5C367.963 462.896 367.171 459.695 363.016 455.793C353.903 447.237 339.242 447.184 333.767 455.756C331.27 459.492 332.8 463.904 338.195 468.969C342.204 472.734 342.819 473.052 348.891 473.837L355.359 474.735L411.712 527.647L467.992 580.49L467.543 602.708C467.241 614.973 466.759 633.279 466.42 643.439C466.007 653.53 465.787 666.39 465.76 671.927C465.779 680.095 464.197 752.608 463.402 778.511L463.327 784.391L659.537 968.361L855.909 1152.35L903.264 1149.6C950.295 1146.8 993.585 1144.23 1069.05 1139.66C1090.82 1138.37 1116.3 1136.43 1125.84 1135.42C1151.51 1132.74 1209.88 1124.81 1211.92 1123.75C1213.7 1122.83 1213.04 1122.22 1142.68 1056.28L1071.73 989.789L1030.59 984.543L989.46 979.298L950.733 943.065L912.006 906.833L876.936 905.987C857.643 905.466 812.17 904.167 775.733 903.074C652.132 899.441 651.469 899.465 650.778 900.886C650.448 901.482 683.789 933.175 757.274 1002.17L864.22 1102.59L919.197 1100.13C1048.64 1094.37 1073.76 1093.25 1075.22 1093.45C1075.86 1093.54 1084.8 1101.55 1094.99 1111.25L1113.39 1128.91L1091.3 1130.16C1058.48 1132.07 957.847 1138.1 904.569 1141.38L857.611 1144.25L669.436 967.694C565.989 870.564 479.86 789.954 477.99 788.586C474.63 786.078 474.63 786.078 475.529 752.898C476.011 734.593 476.417 715.052 476.388 709.332C476.356 689.38 477.466 662.996 478.265 662.582C478.798 662.306 478.788 661.779 478.424 661.437C477.476 660.547 477.528 658.396 478.567 612.93L479.35 578.218L464.842 564.597L450.335 550.975L454.342 526.276L458.276 501.509L452.371 495.965C449.09 492.884 439.733 483.711 431.559 475.519L416.637 460.731L417.351 448.465C417.715 441.692 418.371 432.217 418.715 427.366C419.06 422.514 419.312 416.542 419.307 414.208C419.228 411.806 419.503 405.078 420.063 399.265L420.935 388.829L375.226 345.911L329.59 303.062L331.499 300.586C337.196 293.386 329.479 283.682 316.705 281.908C311.135 281.076 310.206 281.239 305.855 283.493C302.658 285.149 300.593 286.962 299.676 288.817Z"/>
</mask>
<path d="M299.676 288.817C297.77 292.46 299.04 296.37 303.341 300.408C307.35 304.173 311.589 305.695 319.753 306.245L325.064 306.574L368.951 347.781L412.749 389.034L412.108 398.394C411.805 403.542 411.065 418.371 410.344 431.278L409.146 454.733L377.935 424.911L346.635 395.134L347.176 391.243C347.795 386.78 344.902 383.286 338.948 381.06C334.402 379.379 331.485 379.615 326.424 382.237C323.316 383.847 322.244 385.039 321.958 387.099C321.163 392.822 328.831 398.727 337.002 398.637L340.388 398.583L395.21 450.057L449.959 501.462L447.954 514.716C446.775 522.018 445.189 531.654 444.57 536.118L443.118 544.198L403.824 507.304L364.546 470.295L365.84 467.5C367.963 462.896 367.171 459.695 363.016 455.793C353.903 447.237 339.242 447.184 333.767 455.756C331.27 459.492 332.8 463.904 338.195 468.969C342.204 472.734 342.819 473.052 348.891 473.837L355.359 474.735L411.712 527.647L467.992 580.49L467.543 602.708C467.241 614.973 466.759 633.279 466.42 643.439C466.007 653.53 465.787 666.39 465.76 671.927C465.779 680.095 464.197 752.608 463.402 778.511L463.327 784.391L659.537 968.361L855.909 1152.35L903.264 1149.6C950.295 1146.8 993.585 1144.23 1069.05 1139.66C1090.82 1138.37 1116.3 1136.43 1125.84 1135.42C1151.51 1132.74 1209.88 1124.81 1211.92 1123.75C1213.7 1122.83 1213.04 1122.22 1142.68 1056.28L1071.73 989.789L1030.59 984.543L989.46 979.298L950.733 943.065L912.006 906.833L876.936 905.987C857.643 905.466 812.17 904.167 775.733 903.074C652.132 899.441 651.469 899.465 650.778 900.886C650.448 901.482 683.789 933.175 757.274 1002.17L864.22 1102.59L919.197 1100.13C1048.64 1094.37 1073.76 1093.25 1075.22 1093.45C1075.86 1093.54 1084.8 1101.55 1094.99 1111.25L1113.39 1128.91L1091.3 1130.16C1058.48 1132.07 957.847 1138.1 904.569 1141.38L857.611 1144.25L669.436 967.694C565.989 870.564 479.86 789.954 477.99 788.586C474.63 786.078 474.63 786.078 475.529 752.898C476.011 734.593 476.417 715.052 476.388 709.332C476.356 689.38 477.466 662.996 478.265 662.582C478.798 662.306 478.788 661.779 478.424 661.437C477.476 660.547 477.528 658.396 478.567 612.93L479.35 578.218L464.842 564.597L450.335 550.975L454.342 526.276L458.276 501.509L452.371 495.965C449.09 492.884 439.733 483.711 431.559 475.519L416.637 460.731L417.351 448.465C417.715 441.692 418.371 432.217 418.715 427.366C419.06 422.514 419.312 416.542 419.307 414.208C419.228 411.806 419.503 405.078 420.063 399.265L420.935 388.829L375.226 345.911L329.59 303.062L331.499 300.586C337.196 293.386 329.479 283.682 316.705 281.908C311.135 281.076 310.206 281.239 305.855 283.493C302.658 285.149 300.593 286.962 299.676 288.817Z" stroke="#FC0B56" stroke-width="4" mask="url(#path-2-inside-2)"/>
</g>
<g id="Vector_3">
<mask id="path-3-inside-3" fill="white">
<path d="M645.435 294.313C642.939 298.049 644.145 302.416 648.738 306.728C653.128 310.721 658.685 312.834 664.722 312.681L668.933 312.624L726.395 366.448L783.842 420.386L799.092 423.321C807.509 425.014 840.799 431.562 872.957 437.953C905.115 444.343 940.078 451.298 950.744 453.421C961.336 455.475 972.94 457.961 976.522 458.867C980.032 459.704 990.697 461.827 1000.26 463.564C1009.76 465.232 1019.94 467.287 1022.89 467.989C1025.75 468.736 1032.8 470.182 1038.36 471.128C1044 472.029 1053.4 473.743 1059.34 474.917L1070.18 476.948L1257.22 653.345C1360.11 750.339 1445.77 831.408 1447.61 833.531L1450.89 837.252L1447.39 842.89C1445.56 845.96 1443.53 848.712 1442.99 848.987C1442.37 849.309 1441.7 850.615 1441.43 851.92C1441.26 853.179 1438.19 859.228 1434.79 865.346C1416.99 896.762 1357.47 1000.77 1356.68 1001.71C1355.91 1002.54 1353.11 1000.17 1336.92 984.972L1318.04 967.243L1324.91 954.549C1328.68 947.607 1342.85 920.936 1356.54 895.365C1370.22 869.795 1384.02 844.063 1387.21 838.266L1392.97 827.634L1360.36 797.793C1342.37 781.412 1293.62 736.031 1251.99 696.946C1180.48 629.797 1176.31 626.01 1174.88 626.746C1174 627.205 1167.3 644.589 1159.87 665.43C1152.46 686.157 1145.66 704.868 1144.8 706.907C1143.94 708.945 1137.76 726.168 1131.09 745.131C1124.41 764.093 1116.78 785.255 1114.32 792.263L1109.69 804.86L1148.01 841.619L1186.34 878.379L1184.72 888.245C1183.88 893.67 1182.71 900.331 1182.17 903.055C1181.55 905.711 1180.5 914.431 1179.8 922.441L1178.36 936.997L1247.27 1000.93C1285.23 1036.18 1317.08 1065.56 1318.22 1066.25C1319.35 1067.04 1320.7 1067.41 1321.23 1067.13C1322.3 1066.58 1349.05 1031.16 1359.79 1016.14C1364 1010.14 1383.35 977.596 1402.56 943.751C1421.92 909.928 1443.58 872.05 1450.78 859.401L1463.92 836.554L1268.56 652.994L1073.19 469.549L1011.6 457.265C977.683 450.513 948.007 444.642 945.525 444.122C943.042 443.602 921.55 439.335 897.559 434.662C785.569 412.694 791.165 413.938 786.315 410.289C783.935 408.442 758.444 384.897 729.721 357.928L677.378 308.781L678.162 305.507C679.137 300.859 678.006 297.728 673.705 293.689C668.894 289.172 664.186 287.468 658.012 288.01C651.928 288.507 647.843 290.623 645.435 294.313Z"/>
</mask>
<path d="M645.435 294.313C642.939 298.049 644.145 302.416 648.738 306.728C653.128 310.721 658.685 312.834 664.722 312.681L668.933 312.624L726.395 366.448L783.842 420.386L799.092 423.321C807.509 425.014 840.799 431.562 872.957 437.953C905.115 444.343 940.078 451.298 950.744 453.421C961.336 455.475 972.94 457.961 976.522 458.867C980.032 459.704 990.697 461.827 1000.26 463.564C1009.76 465.232 1019.94 467.287 1022.89 467.989C1025.75 468.736 1032.8 470.182 1038.36 471.128C1044 472.029 1053.4 473.743 1059.34 474.917L1070.18 476.948L1257.22 653.345C1360.11 750.339 1445.77 831.408 1447.61 833.531L1450.89 837.252L1447.39 842.89C1445.56 845.96 1443.53 848.712 1442.99 848.987C1442.37 849.309 1441.7 850.615 1441.43 851.92C1441.26 853.179 1438.19 859.228 1434.79 865.346C1416.99 896.762 1357.47 1000.77 1356.68 1001.71C1355.91 1002.54 1353.11 1000.17 1336.92 984.972L1318.04 967.243L1324.91 954.549C1328.68 947.607 1342.85 920.936 1356.54 895.365C1370.22 869.795 1384.02 844.063 1387.21 838.266L1392.97 827.634L1360.36 797.793C1342.37 781.412 1293.62 736.031 1251.99 696.946C1180.48 629.797 1176.31 626.01 1174.88 626.746C1174 627.205 1167.3 644.589 1159.87 665.43C1152.46 686.157 1145.66 704.868 1144.8 706.907C1143.94 708.945 1137.76 726.168 1131.09 745.131C1124.41 764.093 1116.78 785.255 1114.32 792.263L1109.69 804.86L1148.01 841.619L1186.34 878.379L1184.72 888.245C1183.88 893.67 1182.71 900.331 1182.17 903.055C1181.55 905.711 1180.5 914.431 1179.8 922.441L1178.36 936.997L1247.27 1000.93C1285.23 1036.18 1317.08 1065.56 1318.22 1066.25C1319.35 1067.04 1320.7 1067.41 1321.23 1067.13C1322.3 1066.58 1349.05 1031.16 1359.79 1016.14C1364 1010.14 1383.35 977.596 1402.56 943.751C1421.92 909.928 1443.58 872.05 1450.78 859.401L1463.92 836.554L1268.56 652.994L1073.19 469.549L1011.6 457.265C977.683 450.513 948.007 444.642 945.525 444.122C943.042 443.602 921.55 439.335 897.559 434.662C785.569 412.694 791.165 413.938 786.315 410.289C783.935 408.442 758.444 384.897 729.721 357.928L677.378 308.781L678.162 305.507C679.137 300.859 678.006 297.728 673.705 293.689C668.894 289.172 664.186 287.468 658.012 288.01C651.928 288.507 647.843 290.623 645.435 294.313Z" stroke="#FC0B56" stroke-width="4" mask="url(#path-3-inside-3)"/>
</g>
</g>
<g id="front">
<path id="Vector_4" d="M361.65 164.399C359.502 168.592 360.268 171.382 364.642 175.489C369.964 180.485 375.109 182.6 380.458 182.059L384.894 181.567L518.96 307.446L653.026 433.325L640.066 431.117C632.967 430.014 623.62 428.483 619.359 427.716L611.63 426.41L550.37 369.667L489.11 312.925L489.882 307.957C490.664 303.517 490.451 302.67 487.535 299.933C483.088 295.757 477.306 294.079 472.096 295.397C462.872 297.732 460.552 304.351 466.748 310.169C469.956 313.181 476.937 315.725 480.168 315.007C482.381 314.498 483.548 315.593 544.712 373.023L607.043 431.547L619.211 433.528C625.736 434.61 637.816 436.637 646.03 438.011L660.754 440.581L704.422 481.582L748.09 522.583L747.11 552.193C746.575 568.509 746.037 583.657 745.985 585.808L745.607 589.722L671.881 521.274C631.211 483.605 584.142 439.799 567.301 423.987L536.699 395.123L538.938 392.052C541.435 388.315 540.339 383.147 535.965 379.04C532.539 375.823 528.259 374.004 522.495 373.379C516.82 372.707 509.101 376.068 507.058 380.1C502.876 388.852 513.26 398.343 526.894 398.078L531.193 397.975L605.731 467.702C646.806 506.01 682.908 539.778 686.116 542.79L692.053 548.106L683.854 546.617C679.358 545.759 675.363 544.855 675.072 544.581C674.707 544.239 670.785 543.402 666.347 542.728C661.835 541.985 646.262 539.005 631.675 536.046L605.144 530.671L577.806 505.002C562.7 490.947 548.379 477.76 545.853 475.776C541.311 472.288 541.238 472.219 543.043 469.903C545.428 466.968 544.335 462.967 540.034 458.929C537.191 456.259 535.872 455.668 531.887 455.289C523.843 454.464 516.831 459.264 518.04 464.798C519.136 469.966 526.186 474.387 533.282 474.322L536.757 474.221L569.781 505.229L602.822 536.122L618.468 539.17C627.136 540.84 639.887 543.369 646.865 544.747C653.828 546.239 668.415 549.197 679.315 551.411L699.19 555.454L751.518 604.716C801.82 651.946 813.712 663.629 811.854 663.955C811.353 664.002 798.516 662.686 783.341 660.987L755.758 657.856L719.526 623.837L683.366 589.886L683.9 586.635C684.92 580.477 677.95 575.485 669.959 576.65C664.489 577.465 662.022 579.806 662.734 583.579C663.56 587.718 666.654 590.364 672.849 592.041L678.089 593.469L711.979 624.772C744.921 655.185 745.869 656.075 743.542 656.218C742.128 656.313 730.526 654.994 717.575 653.312L694.186 650.239L649.621 609.171C625.151 586.584 597.838 561.327 589.09 553.113C576.624 541.408 572.858 538.261 572.278 538.88C571.31 539.912 570.652 555.335 570.345 589.588C570.16 603.386 569.777 619.197 569.442 624.575C569.18 630.021 569.128 635.147 569.251 636.039C569.824 639.035 568.54 683.884 567.81 686.174C567.474 687.41 567.447 689.973 567.767 691.826C568.086 693.678 568.318 702.692 568.121 711.822L567.789 728.457L600.319 758.872L632.76 789.332L647.916 789.978C656.274 790.322 668.664 790.701 675.389 790.935C682.203 791.123 694.917 791.547 703.598 791.936C729.981 793.034 759.912 794.099 778.292 794.668C787.902 794.895 808.562 795.664 824.202 796.378C839.77 797.023 853.94 797.649 855.588 797.645C862.345 797.65 874.809 798.098 887.241 798.774C894.524 799.144 904.853 799.529 910.196 799.629C915.627 799.683 925.884 800 933.167 800.369C940.539 800.693 951.192 801.123 957.02 801.29L967.616 801.537L997.512 828.961C1013.96 844.019 1027.98 856.406 1028.63 856.496C1029.19 856.631 1054.52 843.935 1084.85 828.433L1139.86 800.259L1110.46 771.622C1094.27 755.9 1081.18 742.709 1081.32 742.32C1081.46 741.931 1099.44 690.768 1121.24 628.704L1160.91 515.753L1128.78 485.452L1096.55 455.197L1090.21 453.383C1086.72 452.432 1082.38 451.596 1080.68 451.418C1078.88 451.285 1045.89 445.011 1007.22 437.425C886.166 413.674 835.613 403.854 833.083 403.678C830.876 403.546 835.161 407.699 887.432 456.778C918.707 486.143 945.632 511.812 947.48 513.935C951.014 518.159 951.1 516.946 944.015 541.859L941.634 550.102L872.97 486.149L804.306 422.195L804.912 419.013C805.313 417.319 808.147 409.372 811.32 401.356L817.032 386.926L788.835 360.321L760.549 333.763L761.331 329.322C762.033 325.453 761.748 324.539 758.832 321.801C754.822 318.036 749.816 316.699 744.388 317.812C736.996 319.41 734.717 326.326 739.966 331.254C742.445 333.582 748.164 335.717 751.332 335.457C753.748 335.268 754.639 335.975 781.393 361.096L808.789 386.947L805.663 394.621C803.927 398.812 801.211 405.318 799.862 409.097L797.098 415.945L782.153 401.913L767.281 387.949L768.801 384.719C771.085 380.137 770.05 376.319 765.238 371.801C756.199 363.313 742.209 363.762 737.083 372.79C734.757 377.075 735.637 380.23 740.522 384.816C745.115 389.129 750.761 391.196 756.433 390.701L760.264 390.416L850.078 474.746L939.804 559.122L935.5 581.213C933.08 593.3 930.962 603.213 930.873 603.259C930.8 603.191 880.232 556.098 818.833 498.578L707.027 393.988L706.434 385.799C706.156 381.269 705.625 375.596 705.312 373.103C704.999 370.61 703.705 353.224 702.368 334.374L699.878 300.082L647.316 250.73L594.754 201.378L595.383 197.441C595.876 193.893 595.647 193.161 592.075 189.807C588.576 186.522 587.492 186.021 582.641 185.348C577.952 184.696 576.522 184.906 573.148 186.654C569.685 188.448 569.161 189.25 568.951 192.545C568.829 195.795 569.406 196.983 572.541 199.926C575.967 203.143 576.744 203.485 582.581 204.179L588.903 204.94L609.429 224.472L629.867 244.049L603.095 239.223L576.235 234.443L550.257 209.663L524.19 184.93L525.187 179.527C526.258 174.193 526.128 173.942 521.744 169.309L517.288 164.607L510.012 163.597C503.471 162.63 502.38 162.77 498.473 164.794C492.613 167.829 490.747 171.77 492.74 177.004C495.407 183.907 502.755 187.961 512.502 187.798L516.713 187.741L544.285 213.5L571.696 239.237L587.828 242.352C596.496 244.023 611.454 246.683 620.889 248.168L637.892 250.938L665.158 276.538L692.496 302.207L695.313 341.851C696.974 363.721 698.061 382.594 697.975 383.807C697.673 385.982 696.652 385.024 636.29 328.347L574.907 270.713L576.474 267.139C580.285 258.686 570.257 249.011 557.964 249.112C553.43 249.124 546.681 252.62 544.378 256.149C542.462 259.266 544.214 265.05 548.061 268.793C551.196 271.736 557.99 273.846 563.938 273.739C568.238 273.636 568.311 273.704 574.523 279.408C579.845 284.405 580.324 285.113 578.383 284.844C577.09 284.664 566.101 282.496 554.069 280.126L532.019 275.722L510.148 255.187L488.278 234.652L488.187 230.557C487.949 222.183 478.175 217.793 469.562 222.255C462.903 225.704 467.206 233.884 476.78 236.147L481.406 237.256L504.37 258.818L527.334 280.379L546.975 284.331C557.802 286.477 571.508 289.255 577.605 290.451L588.593 292.619L718.285 414.391C789.583 481.335 847.727 536.186 847.549 536.278C847.371 536.37 826.478 532.536 801.21 527.569L755.298 518.743L741.472 506.15L727.63 493.67L724.19 467.413L720.733 441.269L660.954 385.14L601.175 329.012L601.512 324.801C601.863 319.309 598.338 315.611 591.522 314.256C587.673 313.489 586.332 313.652 583.046 315.354C574.522 319.77 578.276 328.34 589.734 330.689L594.068 331.524L653.376 386.304L712.683 441.084L715.529 462.127C717.222 473.677 718.287 483.216 718.02 483.354C717.754 483.492 644.31 414.792 554.787 330.736L392.071 177.956L393.787 175.686C395.728 172.981 394.998 168.155 392.291 165.097C387.283 159.618 385.131 158.503 378.825 157.627C373.092 156.773 372.163 156.935 367.812 159.189C364.616 160.845 362.551 162.658 361.65 164.399Z" fill="#08FDD8"/>
<path id="Vector_5" d="M335.676 226.817C333.77 230.46 335.04 234.37 339.341 238.408C343.35 242.173 347.589 243.695 355.753 244.245L361.064 244.574L404.951 285.781L448.749 327.034L448.108 336.394C447.805 341.542 447.065 356.371 446.344 369.278L445.146 392.733L413.935 362.911L382.635 333.134L383.176 329.243C383.795 324.78 380.902 321.286 374.948 319.06C370.402 317.379 367.485 317.615 362.424 320.237C359.316 321.847 358.244 323.039 357.958 325.099C357.163 330.822 364.831 336.727 373.002 336.637L376.388 336.583L431.21 388.057L485.959 439.462L483.954 452.716C482.775 460.018 481.189 469.654 480.57 474.118L479.118 482.198L439.824 445.304L400.546 408.295L401.84 405.5C403.963 400.896 403.171 397.695 399.016 393.793C389.903 385.237 375.242 385.184 369.767 393.756C367.27 397.492 368.8 401.904 374.195 406.969C378.204 410.734 378.819 411.052 384.891 411.837L391.359 412.735L447.712 465.647L503.992 518.49L503.543 540.708C503.241 552.973 502.759 571.279 502.42 581.439C502.007 591.53 501.787 604.39 501.76 609.927C501.779 618.095 500.197 690.608 499.402 716.511L499.327 722.391L695.537 906.361L891.909 1090.35L939.264 1087.6C986.295 1084.8 1029.58 1082.23 1105.05 1077.66C1126.82 1076.37 1152.3 1074.43 1161.84 1073.42C1187.51 1070.74 1245.88 1062.81 1247.92 1061.75C1249.7 1060.83 1249.04 1060.22 1178.68 994.276L1107.73 927.789L1066.59 922.543L1025.46 917.298L986.733 881.065L948.006 844.833L912.936 843.987C893.643 843.466 848.17 842.167 811.733 841.074C688.132 837.441 687.469 837.465 686.778 838.886C686.448 839.482 719.789 871.175 793.274 940.172L900.22 1040.59L955.197 1038.13C1084.64 1032.37 1109.76 1031.25 1111.22 1031.45C1111.86 1031.54 1120.8 1039.55 1130.99 1049.25L1149.39 1066.91L1127.3 1068.16C1094.48 1070.07 993.847 1076.1 940.569 1079.38L893.611 1082.25L705.436 905.694C601.989 808.564 515.86 727.954 513.99 726.586C510.63 724.078 510.63 724.078 511.529 690.898C512.011 672.593 512.417 653.052 512.388 647.332C512.356 627.38 513.466 600.996 514.265 600.582C514.798 600.306 514.788 599.779 514.424 599.437C513.476 598.547 513.528 596.396 514.567 550.93L515.35 516.218L500.842 502.597L486.335 488.975L490.342 464.276L494.276 439.509L488.371 433.965C485.09 430.884 475.733 421.711 467.559 413.519L452.637 398.731L453.351 386.465C453.715 379.692 454.371 370.217 454.715 365.366C455.06 360.514 455.312 354.542 455.307 352.208C455.228 349.806 455.503 343.078 456.063 337.265L456.935 326.829L411.226 283.911L365.59 241.062L367.499 238.586C373.196 231.386 365.479 221.682 352.705 219.908C347.135 219.076 346.206 219.239 341.855 221.493C338.658 223.149 336.593 224.962 335.676 226.817Z" fill="#08FDD8"/>
<path id="Vector_6" d="M681.435 232.313C678.939 236.049 680.145 240.416 684.738 244.728C689.128 248.721 694.685 250.834 700.722 250.681L704.933 250.624L762.395 304.448L819.842 358.386L835.092 361.321C843.509 363.014 876.799 369.562 908.957 375.953C941.115 382.343 976.078 389.298 986.744 391.421C997.336 393.475 1008.94 395.961 1012.52 396.867C1016.03 397.704 1026.7 399.827 1036.26 401.564C1045.76 403.232 1055.94 405.287 1058.89 405.989C1061.75 406.736 1068.8 408.182 1074.36 409.128C1080 410.029 1089.4 411.743 1095.34 412.917L1106.18 414.948L1293.22 591.345C1396.11 688.339 1481.77 769.408 1483.61 771.531L1486.89 775.252L1483.39 780.89C1481.56 783.96 1479.53 786.712 1478.99 786.987C1478.37 787.309 1477.7 788.615 1477.43 789.92C1477.26 791.179 1474.19 797.228 1470.79 803.346C1452.99 834.762 1393.47 938.774 1392.68 939.714C1391.91 940.54 1389.11 938.168 1372.92 922.972L1354.04 905.243L1360.91 892.549C1364.68 885.607 1378.85 858.936 1392.54 833.365C1406.22 807.795 1420.02 782.063 1423.21 776.266L1428.97 765.634L1396.36 735.793C1378.37 719.412 1329.62 674.031 1287.99 634.946C1216.48 567.797 1212.31 564.01 1210.88 564.746C1210 565.205 1203.3 582.589 1195.87 603.43C1188.46 624.157 1181.66 642.868 1180.8 644.907C1179.94 646.945 1173.76 664.168 1167.09 683.131C1160.41 702.093 1152.78 723.255 1150.32 730.263L1145.69 742.86L1184.01 779.619L1222.34 816.379L1220.72 826.245C1219.88 831.67 1218.71 838.331 1218.17 841.055C1217.55 843.711 1216.5 852.431 1215.8 860.441L1214.36 874.997L1283.27 938.927C1321.23 974.177 1353.08 1003.56 1354.22 1004.25C1355.35 1005.04 1356.7 1005.41 1357.23 1005.13C1358.3 1004.58 1385.05 969.159 1395.79 954.143C1400 948.138 1419.35 915.596 1438.56 881.751C1457.92 847.928 1479.58 810.05 1486.78 797.401L1499.92 774.554L1304.56 590.994L1109.19 407.549L1047.6 395.265C1013.68 388.513 984.007 382.642 981.525 382.122C979.042 381.602 957.55 377.335 933.559 372.662C821.569 350.694 827.165 351.938 822.315 348.289C819.935 346.442 794.444 322.897 765.721 295.928L713.378 246.781L714.162 243.507C715.137 238.859 714.006 235.728 709.705 231.689C704.894 227.172 700.186 225.468 694.012 226.01C687.928 226.507 683.843 228.623 681.435 232.313Z" fill="#08FDD8"/>
</g>
</g>
</svg>
