<?xml version="1.0" standalone="no"?>
<!DOCTYPE svg PUBLIC "-//W3C//DTD SVG 20010904//EN"
 "http://www.w3.org/TR/2001/REC-SVG-20010904/DTD/svg10.dtd">
<svg version="1.0" xmlns="http://www.w3.org/2000/svg"
 width="300.000000pt" height="225.000000pt" viewBox="0 0 300.000000 225.000000"
 preserveAspectRatio="xMidYMid meet">
<metadata>
Created by potrace 1.10, written by Peter Selinger 2001-2011
</metadata>
<g transform="translate(0.000000,225.000000) scale(0.100000,-0.100000)"
fill="#000000" stroke="none">
<path d="M1468 1615 c-22 -25 -28 -43 -28 -78 0 -27 -6 -49 -15 -57 -11 -9
-15 -32 -15 -84 l1 -71 44 -33 45 -33 45 33 44 33 1 72 c0 57 -3 74 -17 81
-13 8 -16 22 -14 59 2 43 -2 52 -31 79 l-33 31 -27 -32z m48 -32 c7 -10 14
-34 14 -54 0 -19 7 -44 15 -55 9 -12 14 -42 15 -80 0 -59 -1 -61 -35 -80 l-34
-18 -31 29 c-36 35 -41 90 -10 140 11 17 21 49 23 71 5 62 19 78 43 47z"/>
<path d="M895 1390 l39 -40 173 0 173 0 0 -26 0 -25 -150 3 c-83 2 -150 1
-150 -2 0 -3 17 -23 38 -43 l38 -37 138 0 138 0 64 -51 64 -51 0 -235 c0 -214
2 -237 19 -259 l18 -23 22 23 c20 21 21 31 21 258 l0 236 64 51 64 51 139 0
139 0 37 38 c20 21 37 40 37 42 0 3 -67 4 -150 2 l-150 -3 0 25 0 26 173 0
173 0 39 40 39 40 -247 0 -247 0 0 -63 0 -63 -75 -57 -75 -58 -76 58 c-69 54
-75 61 -74 93 1 19 2 47 1 63 l-1 27 -247 0 -247 0 39 -40z m426 -2 c1 -7 3
-22 4 -33 1 -11 3 -29 3 -41 2 -21 33 -64 47 -64 7 0 84 -57 95 -70 17 -21 42
-16 79 15 23 18 56 43 75 55 38 23 47 43 51 105 l2 40 199 2 c155 2 195 0 185
-10 -8 -8 -64 -13 -178 -15 -158 -2 -201 -10 -187 -33 3 -5 -1 -9 -8 -10 -10
0 -10 -2 0 -6 6 -2 9 -9 6 -15 -3 -5 2 -16 12 -23 14 -10 51 -14 132 -15 68 0
112 -4 112 -10 0 -5 -6 -10 -12 -10 -7 0 -74 -1 -149 -3 -133 -4 -137 -5 -165
-31 -16 -15 -41 -34 -56 -42 -55 -29 -59 -54 -58 -301 0 -151 -3 -222 -10
-218 -6 4 -10 87 -10 228 -1 155 -4 228 -13 243 -7 12 -41 44 -77 70 l-64 49
-136 3 c-169 5 -200 22 -38 22 l117 0 21 30 c12 17 16 30 10 30 -6 0 -9 4 -6
9 14 22 -30 30 -184 35 -91 3 -171 6 -177 6 -7 0 -13 4 -13 9 0 6 83 10 195
11 152 0 195 -2 196 -12z"/>
<path d="M1330 976 l0 -174 36 -44 c20 -23 38 -45 40 -47 2 -2 4 81 4 186 l0
190 -40 32 -40 32 0 -175z m48 -38 c0 -79 -2 -134 -4 -123 -7 42 -10 273 -3
269 4 -2 7 -68 7 -146z"/>
<path d="M1627 1116 l-37 -31 2 -187 3 -186 38 44 37 43 -2 174 -3 175 -38
-32z m12 -170 c1 -74 -2 -137 -7 -140 -4 -3 -8 58 -8 135 0 76 3 139 7 139 3
0 7 -60 8 -134z"/>
</g>
</svg>
